<?xml version="1.0" encoding="utf-8"?>
<!-- Generator: Adobe Illustrator 15.0.0, SVG Export Plug-In  -->
<!DOCTYPE svg PUBLIC "-//W3C//DTD SVG 1.1//EN" "http://www.w3.org/Graphics/SVG/1.1/DTD/svg11.dtd" [
	<!ENTITY ns_flows "http://ns.adobe.com/Flows/1.0/">
]>
<svg version="1.1"
	 xmlns="http://www.w3.org/2000/svg" xmlns:xlink="http://www.w3.org/1999/xlink" xmlns:a="http://ns.adobe.com/AdobeSVGViewerExtensions/3.0/"
	 x="0px" y="0px" width="40px" height="40px" viewBox="40.959 40.958 82 82"
	 overflow="visible" enable-background="new 40.959 40.958 82 82" xml:space="preserve">
<defs>
</defs>
<g>
	<defs>
		<path id="SVGID_2_" d="M60.658,40.958c-10.879,0-19.699,8.82-19.699,19.699v42.682c0,10.88,8.82,19.7,19.699,19.7h42.683
			c10.879,0,19.699-8.82,19.699-19.7V60.658c0-10.879-8.82-19.699-19.699-19.699H60.658z"/>
	</defs>
	<clipPath id="SVGID_3_">
		<use xlink:href="#SVGID_2_"  overflow="visible"/>
	</clipPath>

		<linearGradient id="SVGID_4_" gradientUnits="userSpaceOnUse" x1="40.959" y1="123.0396" x2="41.959" y2="123.0396" gradientTransform="matrix(57.5537 61.307 61.307 -57.5537 -9846.8828 4622.0845)">
		<stop  offset="0" style="stop-color:#F26A21"/>
		<stop  offset="1" style="stop-color:#F04C23"/>
	</linearGradient>
	<polygon clip-path="url(#SVGID_3_)" fill="url(#SVGID_4_)" points="84.589,0 163.999,84.588 79.41,163.999 0,79.41 	"/>
</g>
<g>
	<defs>
		<rect id="SVGID_1_" x="40.959" y="40.958" width="82.081" height="82.081"/>
	</defs>
	<clipPath id="SVGID_5_">
		<use xlink:href="#SVGID_1_"  overflow="visible"/>
	</clipPath>
	<polygon clip-path="url(#SVGID_5_)" fill="#F9AC87" points="95.97,86.345 90.503,97.282 85.035,86.345 76.717,86.345
		90.503,113.917 104.288,86.345 	"/>
	<polygon clip-path="url(#SVGID_5_)" fill="#FFFFFF" points="85.035,86.345 77.842,71.962 70.651,86.345 59.71,86.345 77.842,50.08
		95.975,86.345 	"/>
</g>
</svg>
